<svg viewBox="0 0 331 331" fill="none" xmlns="http://www.w3.org/2000/svg">
  <defs>
    <clipPath id="nf-logo-clip">
      <rect width="331" height="331" rx="40" />
    </clipPath>
  </defs>
  <rect width="331" height="331" rx="40" fill="#0a0a0a" />
  <path
    d="M291 327V331H40V327H291ZM327 291V40C327 20.1177 310.882 3.99998 291 3.99998H40C20.1178 3.99998 4 20.1177 4 40V291C4 310.882 20.1178 327 40 327V331L38.9678 330.987C17.3534 330.44 0 312.746 0 291V40C0 18.2537 17.3534 0.560177 38.9678 0.0126801L40 -1.52588e-05H291C313.091 -1.52588e-05 331 17.9086 331 40V291C331 313.091 313.091 331 291 331V327C310.882 327 327 310.882 327 291Z"
    fill="#FFFECA"
    stroke="#FFFECA"
    stroke-width="1"
  />
  <g clip-path="url(#nf-logo-clip)">
    <path
      d="M80.6364 98.2727V75.0909L182.909 -86.7273H199.727V-50.8182H188.364L111.091 71.4545V73.2727H248.818V98.2727H80.6364ZM190.182 146V-86.7273H217V146H190.182Z"
      fill="#FFFECA"
    />
    <path
      d="M158.818 424.182C145.485 424.182 133.477 421.53 122.795 416.227C112.114 410.924 103.553 403.652 97.1136 394.409C90.6742 385.167 87.1515 374.636 86.5454 362.818H113.818C114.879 373.348 119.652 382.061 128.136 388.955C136.697 395.773 146.924 399.182 158.818 399.182C168.364 399.182 176.848 396.947 184.273 392.477C191.773 388.008 197.644 381.871 201.886 374.068C206.205 366.189 208.364 357.288 208.364 347.364C208.364 337.212 206.129 328.159 201.659 320.205C197.265 312.174 191.205 305.848 183.477 301.227C175.75 296.606 166.924 294.258 157 294.182C149.879 294.106 142.568 295.205 135.068 297.477C127.568 299.674 121.394 302.515 116.545 306L90.1818 302.818L104.273 188.273H225.182V213.273H127.909L119.727 281.909H121.091C125.864 278.121 131.848 274.977 139.045 272.477C146.242 269.977 153.742 268.727 161.545 268.727C175.788 268.727 188.477 272.136 199.614 278.955C210.826 285.697 219.614 294.939 225.977 306.682C232.417 318.424 235.636 331.833 235.636 346.909C235.636 361.758 232.303 375.015 225.636 386.682C219.045 398.273 209.955 407.439 198.364 414.182C186.773 420.848 173.591 424.182 158.818 424.182Z"
      fill="#FFFECA"
    />
  </g>
</svg>
